<?xml version="1.0" standalone="no"?>
<!DOCTYPE svg PUBLIC "-//W3C//DTD SVG 20010904//EN"
 "http://www.w3.org/TR/2001/REC-SVG-20010904/DTD/svg10.dtd">
<svg version="1.0" xmlns="http://www.w3.org/2000/svg"
 width="294.000000pt" height="171.000000pt" viewBox="0 0 294.000000 171.000000"
 preserveAspectRatio="xMidYMid meet">

<g transform="translate(0.000000,171.000000) scale(0.100000,-0.100000)"
fill="#000000" stroke="none">
<path d="M1106 1576 l-26 -25 0 -296 0 -296 25 -24 c13 -14 30 -25 37 -25 7 0
47 16 88 36 41 21 83 41 93 46 12 6 23 4 33 -7 23 -22 14 -27 104 55 28 26 30
29 8 16 -34 -20 -39 -20 -32 -1 4 8 13 15 21 15 8 0 27 8 41 19 15 10 32 20
38 22 21 8 224 133 224 139 0 3 -17 14 -38 26 -20 11 -154 87 -297 169 -142
81 -267 150 -277 153 -9 2 -28 -7 -42 -22z m314 -539 c0 -2 -13 -13 -30 -25
-20 -15 -30 -18 -30 -10 0 7 10 18 23 24 23 12 37 16 37 11z"/>
<path d="M1510 1080 c-9 -6 -10 -10 -3 -10 6 0 15 5 18 10 8 12 4 12 -15 0z"/>
<path d="M1330 976 c0 -3 9 -10 20 -16 11 -6 20 -8 20 -6 0 3 -9 10 -20 16
-11 6 -20 8 -20 6z"/>
<path d="M1994 455 c-7 -18 3 -35 21 -35 21 0 28 19 15 35 -16 19 -29 19 -36
0z"/>
<path d="M434 427 c-2 -7 -3 -60 -2 -118 3 -99 4 -104 26 -107 19 -3 22 1 22
35 l0 38 57 2 c73 3 98 25 97 85 -2 62 -27 78 -120 78 -53 0 -76 -4 -80 -13z
m144 -33 c50 -35 12 -94 -60 -94 l-38 0 0 55 0 55 38 0 c21 0 48 -7 60 -16z"/>
<path d="M917 423 c-4 -3 -7 -15 -7 -25 0 -10 -7 -18 -15 -18 -8 0 -15 -5 -15
-10 0 -6 7 -13 15 -16 11 -4 15 -21 15 -58 0 -64 15 -87 59 -89 41 -2 54 20
14 25 -27 3 -28 6 -31 61 -3 55 -2 57 23 57 16 0 25 6 25 15 0 9 -9 15 -25 15
-20 0 -25 5 -25 25 0 24 -18 34 -33 18z"/>
<path d="M720 381 c-14 -4 -25 -13 -25 -21 0 -16 3 -16 46 -5 17 4 33 0 49
-13 31 -25 18 -42 -34 -42 -52 0 -79 -18 -74 -50 5 -36 49 -58 88 -43 17 6 32
7 36 2 3 -5 12 -9 20 -9 23 0 20 142 -4 163 -22 20 -68 28 -102 18z m90 -113
c0 -20 -32 -48 -56 -48 -24 0 -50 33 -39 50 9 14 95 13 95 -2z"/>
<path d="M1083 379 c-23 -7 -31 -14 -26 -24 4 -11 12 -13 27 -8 49 17 94 -1
83 -31 -5 -11 -20 -16 -51 -16 -37 0 -48 -5 -61 -24 -13 -19 -14 -29 -6 -45
14 -26 71 -37 102 -20 17 9 24 9 27 0 2 -6 10 -11 18 -11 22 0 19 131 -3 159
-21 25 -66 33 -110 20z m85 -121 c-4 -32 -52 -48 -75 -26 -26 27 -9 48 37 48
37 0 41 -2 38 -22z"/>
<path d="M1314 380 c-28 -11 -54 -48 -54 -77 0 -69 71 -115 130 -83 27 14 35
-5 16 -35 -18 -27 -70 -34 -106 -15 -13 7 -21 7 -26 -1 -12 -20 16 -33 76 -34
49 0 63 4 82 23 21 20 23 32 23 120 l0 97 -30 1 c-16 1 -43 4 -60 8 -16 3 -40
1 -51 -4z m102 -63 c3 -10 0 -32 -6 -48 -11 -25 -18 -29 -51 -29 -42 0 -59 18
-59 63 0 29 15 44 50 49 30 4 58 -10 66 -35z"/>
<path d="M1575 383 c-52 -13 -85 -76 -65 -123 37 -88 171 -73 186 21 5 30 2
41 -22 67 -30 32 -64 44 -99 35z m83 -78 c6 -45 -16 -75 -54 -75 -61 0 -86 72
-38 109 23 18 29 19 57 7 24 -9 33 -20 35 -41z"/>
<path d="M1830 380 c-14 -4 -38 -5 -53 -2 l-28 5 3 -89 c2 -71 6 -89 18 -89
11 0 16 15 18 60 4 73 14 87 61 83 l36 -3 5 -70 c4 -56 8 -70 23 -73 15 -3 17
5 17 66 0 95 -33 132 -100 112z"/>
<path d="M2123 379 c-52 -15 -43 -41 10 -29 43 9 77 -4 77 -30 0 -17 -6 -20
-48 -20 -36 0 -54 -5 -67 -20 -39 -43 24 -96 86 -73 18 7 31 7 37 1 6 -6 16
-7 22 -3 17 11 7 139 -12 158 -20 20 -67 27 -105 16z m87 -120 c0 -24 -35 -42
-66 -35 -31 8 -32 44 -2 55 32 12 68 2 68 -20z"/>
<path d="M2378 376 c-16 -8 -28 -11 -28 -5 0 5 -9 9 -20 9 -19 0 -20 -7 -20
-90 0 -83 1 -90 20 -90 18 0 20 7 20 63 0 72 10 87 56 87 42 0 47 -10 47 -82
0 -60 5 -72 29 -63 22 9 16 132 -8 155 -27 27 -65 33 -96 16z"/>
<path d="M1990 289 c0 -81 2 -90 18 -87 14 3 17 17 20 91 3 82 2 87 -18 87
-19 0 -20 -6 -20 -91z"/>
</g>
</svg>
